<?xml version="1.0" encoding="utf-8"?>
<!-- Generator: Adobe Illustrator 23.0.1, SVG Export Plug-In . SVG Version: 6.00 Build 0)  -->
<!DOCTYPE svg PUBLIC "-//W3C//DTD SVG 1.1//EN" "http://www.w3.org/Graphics/SVG/1.1/DTD/svg11.dtd" [
	<!ENTITY ns_extend "http://ns.adobe.com/Extensibility/1.0/">
	<!ENTITY ns_ai "http://ns.adobe.com/AdobeIllustrator/10.0/">
	<!ENTITY ns_graphs "http://ns.adobe.com/Graphs/1.0/">
	<!ENTITY ns_vars "http://ns.adobe.com/Variables/1.0/">
	<!ENTITY ns_imrep "http://ns.adobe.com/ImageReplacement/1.0/">
	<!ENTITY ns_sfw "http://ns.adobe.com/SaveForWeb/1.0/">
	<!ENTITY ns_custom "http://ns.adobe.com/GenericCustomNamespace/1.0/">
	<!ENTITY ns_adobe_xpath "http://ns.adobe.com/XPath/1.0/">
]>
<svg version="1.1" id="Layer_1"
     xmlns="http://www.w3.org/2000/svg" x="0px" y="0px" viewBox="0 0 25 25"
     style="enable-background:new 0 0 25 25;" xml:space="preserve">
<style type="text/css">
	.st0{fill:#002D67;}
</style>
<metadata>
	<sfw  xmlns="&ns_sfw;">
		<slices></slices>
		<sliceSourceBounds  bottomLeftOrigin="true" height="18.2" width="24.9" x="-0.5" y="-4.1"></sliceSourceBounds>
	</sfw>
</metadata>
<path class="st0" d="M23.3,10.6H1.7c-0.9,0-1.7,0.8-1.7,1.7v0.3c0,0.9,0.8,1.7,1.7,1.7h21.6c0.9,0,1.7-0.8,1.7-1.7v-0.3
	C25,11.3,24.2,10.6,23.3,10.6z"/>
<path class="st0" d="M23.3,3.3H1.7C0.8,3.3,0.1,4.1,0.1,5v0.3C0.1,6.2,0.8,7,1.7,7h21.6C24.2,7,25,6.2,25,5.3V5
	C25,4.1,24.2,3.3,23.3,3.3z"/>
<path class="st0" d="M23.3,17.9H1.7c-0.9,0-1.7,0.8-1.7,1.7v0.3c0,0.9,0.8,1.7,1.7,1.7h21.6c0.9,0,1.7-0.8,1.7-1.7v-0.3
	C25,18.6,24.2,17.9,23.3,17.9z"/>
</svg>
